<svg width="500" height="500" viewBox="0 0 500 500" fill="none" xmlns="http://www.w3.org/2000/svg">
<path fill-rule="evenodd" clip-rule="evenodd" d="M50 236.336C50 219.296 57.2322 203.057 69.898 191.658L210.151 65.4302C233.011 44.8564 267.713 44.8564 290.573 65.4302L430.825 191.658C443.49 203.057 450.723 219.296 450.723 236.336V389.892C450.723 423.087 423.813 450 390.615 450H330.505H330.395H170.329H170.217H110.108C76.9115 450 50 423.087 50 389.892V236.336Z" fill="#0BB885"/>
<path d="M190.25 339.71C190.25 312.095 212.636 289.71 240.25 289.71H260.468C288.08 289.71 310.468 312.095 310.468 339.71V449.997H190.25V339.71Z" fill="#98FFE0"/>
</svg>
