<svg width="500" height="500" viewBox="0 0 500 500" fill="none" xmlns="http://www.w3.org/2000/svg">
<path d="M249.051 25C285.695 25 315.402 54.706 315.402 91.3505V400.985C315.402 437.63 285.695 467.338 249.051 467.338H116.35C79.706 467.338 50 437.63 50 400.985V91.3505C50 54.706 79.706 25 116.35 25H249.051Z" fill="#0BB885"/>
<path d="M375.275 153.12C366.637 144.483 352.632 144.483 343.995 153.12C335.357 161.757 335.357 175.761 343.995 184.398L383.65 224.051H182.7C170.486 224.051 160.583 233.953 160.583 246.168C160.583 258.382 170.486 268.285 182.7 268.285H383.65L343.995 307.937C335.357 316.575 335.357 330.577 343.995 339.215C352.632 347.852 366.637 347.852 375.275 339.215L437.043 277.445C454.317 260.172 454.317 232.164 437.043 214.89L375.275 153.12Z" fill="#98FFE0"/>
</svg>
