<svg width="500" height="500" viewBox="0 0 500 500" fill="none" xmlns="http://www.w3.org/2000/svg">
<path d="M250 450C294.183 450 330 414.183 330 370C330 325.817 294.183 290 250 290C205.817 290 170 325.817 170 370C170 414.183 205.817 450 250 450Z" fill="#98FFE0"/>
<path d="M421.715 370H78.0815C62.5725 370 50 357.427 50 341.917C50 334.302 53.094 327.013 58.5728 321.72L76.0863 304.805C85.8785 295.347 91.3908 282.305 91.35 268.69L91.1735 209.892C90.9087 121.664 162.358 50 250.588 50C338.628 50 410 121.372 410 209.413V269.29C410 282.55 415.267 295.267 424.645 304.645L441.715 321.715C447.02 327.02 450 334.215 450 341.715C450 357.338 437.338 370 421.715 370Z" fill="#0BB885"/>
</svg>
