<svg width="500" height="500" viewBox="0 0 500 500" fill="none" xmlns="http://www.w3.org/2000/svg">
<path fill-rule="evenodd" clip-rule="evenodd" d="M205 115.001C169.399 115.001 134.598 125.558 104.997 145.336C75.3965 165.115 52.3255 193.227 38.7017 226.118C25.078 259.007 21.5134 295.2 28.4587 330.117C35.404 365.032 52.5475 397.107 77.7207 422.28C102.894 447.452 134.967 464.597 169.884 471.542C204.8 478.487 240.993 474.922 273.883 461.3C306.775 447.675 334.885 424.605 354.665 395.002C374.442 365.402 385 330.602 385 295C385 282.575 374.927 272.5 362.5 272.5H250C237.574 272.5 227.5 262.427 227.5 250V137.501C227.5 125.074 217.426 115.001 205 115.001Z" fill="#0BB885"/>
<path d="M295 25C289.033 25 283.31 27.3705 279.09 31.59C274.87 35.8097 272.5 41.5327 272.5 47.5V205C272.5 210.967 274.87 216.69 279.09 220.91C283.31 225.13 289.033 227.5 295 227.5H452.5C458.468 227.5 464.19 225.129 468.41 220.91C472.63 216.69 475 210.967 475 205C475 157.261 456.037 111.477 422.28 77.7207C388.522 43.9642 342.74 25 295 25Z" fill="#98FFE0"/>
</svg>
