<svg width="500" height="500" viewBox="0 0 500 500" fill="none" xmlns="http://www.w3.org/2000/svg">
<path d="M161.658 104.066C174.082 97.123 184.639 86.6355 189.308 73.1905L194.377 58.596C201.362 38.4832 220.318 25 241.61 25H258.393C279.683 25 298.64 38.4832 305.625 58.596L310.693 73.1907C315.363 86.6355 325.92 97.123 338.343 104.066C350.34 110.77 364.045 114.123 377.53 111.474L396.638 107.721C417.29 103.665 438.27 112.976 449.12 131.011L455.663 141.886C467.12 160.936 464.628 185.263 449.54 201.59L438.9 213.108C429.74 223.023 425.81 236.501 425.81 249.999C425.81 263.497 429.74 276.975 438.9 286.89L449.54 298.408C464.628 314.735 467.12 339.063 455.66 358.113L449.12 368.987C438.27 387.022 417.29 396.333 396.638 392.278L377.533 388.525C364.048 385.878 350.34 389.23 338.345 395.933C325.92 402.878 315.363 413.365 310.693 426.81L305.625 441.405C298.64 461.518 279.683 475 258.393 475H241.61C220.318 475 201.362 461.518 194.377 441.405L189.309 426.81C184.639 413.365 174.082 402.878 161.657 395.933C149.66 389.23 135.954 385.875 122.468 388.525L103.363 392.278C82.7108 396.333 61.7298 387.022 50.881 368.987L44.3388 358.113C32.8798 339.063 35.3738 314.735 50.4593 298.408L61.1023 286.888C70.262 276.975 74.192 263.497 74.192 249.999C74.192 236.502 70.262 223.024 61.1023 213.11L50.4593 201.59C35.3738 185.263 32.8798 160.935 44.3388 141.886L50.881 131.011C61.7298 112.976 82.7108 103.665 103.363 107.721L122.47 111.474C135.956 114.123 149.661 110.771 161.658 104.066Z" fill="#0BB885"/>
<path fill-rule="evenodd" clip-rule="evenodd" d="M249.995 311.363C285.305 311.363 313.93 283.89 313.93 250C313.93 216.11 285.305 188.636 249.995 188.636C214.684 188.636 186.059 216.11 186.059 250C186.059 283.89 214.684 311.363 249.995 311.363Z" fill="#98FFE0"/>
</svg>
